<?xml version="1.0" standalone="no"?>
<!DOCTYPE svg PUBLIC "-//W3C//DTD SVG 20010904//EN"
 "http://www.w3.org/TR/2001/REC-SVG-20010904/DTD/svg10.dtd">
<svg version="1.0" xmlns="http://www.w3.org/2000/svg"
 width="512.000000pt" height="512.000000pt" viewBox="0 0 512.000000 512.000000"
 preserveAspectRatio="xMidYMid meet">
<metadata>
Created by potrace 1.11, written by Peter Selinger 2001-2013
</metadata>
<g transform="translate(0.000000,512.000000) scale(0.100000,-0.100000)"
fill="#000000" stroke="none">
<path d="M0 2560 l0 -2560 2560 0 2560 0 0 2560 0 2560 -2560 0 -2560 0 0
-2560z m2335 935 c145 -37 272 -128 353 -254 l40 -61 41 55 c80 106 205 193
346 241 107 36 276 45 389 20 168 -38 324 -153 391 -290 73 -148 85 -291 85
-1048 l0 -548 -235 0 -235 0 0 498 c0 522 -8 670 -40 774 -42 136 -131 203
-270 203 -131 0 -236 -57 -310 -167 -82 -123 -89 -189 -90 -810 l0 -498 -234
0 -234 0 -5 573 c-3 490 -6 581 -20 635 -33 126 -91 205 -177 245 -68 32 -186
29 -262 -5 -117 -54 -200 -164 -235 -313 -14 -59 -17 -153 -20 -602 l-4 -533
-235 0 -234 0 2 925 3 926 230 0 230 0 3 -101 3 -101 52 47 c106 96 230 161
352 187 93 20 245 21 320 2z"/>
</g>
</svg>
